<?xml version="1.0" standalone="no"?>
<!DOCTYPE svg PUBLIC "-//W3C//DTD SVG 20010904//EN"
 "http://www.w3.org/TR/2001/REC-SVG-20010904/DTD/svg10.dtd">
<svg version="1.0" xmlns="http://www.w3.org/2000/svg"
 width="312.000000pt" height="312.000000pt" viewBox="0 0 312.000000 312.000000"
 preserveAspectRatio="xMidYMid meet">
<metadata>
Created by potrace 1.14, written by Peter Selinger 2001-2017
</metadata>
<g transform="translate(0.000000,312.000000) scale(0.100000,-0.100000)"
fill="#000000" stroke="none">
<path d="M1856 3061 c-10 -11 -21 -19 -25 -17 -9 6 -177 20 -241 20 -113 1
-232 -13 -350 -40 -36 -8 -101 -22 -145 -30 -44 -8 -84 -16 -90 -18 -5 -1 -28
-6 -50 -11 -101 -20 -144 -54 -437 -347 -126 -125 -228 -225 -228 -223 0 2 34
69 75 149 59 112 74 150 69 170 l-6 25 -37 -18 c-81 -42 -130 -98 -186 -216
-30 -62 -64 -145 -76 -186 -45 -152 -80 -296 -85 -344 -6 -63 -14 -125 -19
-145 -7 -29 -20 -266 -19 -350 2 -153 52 -390 104 -497 70 -143 273 -415 357
-479 21 -16 71 -59 113 -97 124 -114 196 -157 455 -271 100 -44 239 -84 313
-91 289 -26 542 -6 717 57 132 48 310 147 424 235 58 46 142 107 187 137 92
62 149 123 235 250 94 139 127 212 170 374 5 17 14 49 20 70 18 60 20 551 3
653 -8 46 -17 104 -20 129 -16 132 -138 446 -205 530 -16 19 -55 71 -88 115
-71 97 -257 277 -352 342 -100 69 -258 133 -326 133 -70 0 -90 -21 -53 -55 22
-20 26 -35 10 -35 -5 0 -10 7 -10 15 0 21 -36 42 -100 59 -30 8 -62 17 -71 20
-9 4 -23 -1 -33 -13z"/>
</g>
</svg>
